<svg xmlns="http://www.w3.org/2000/svg" width="1024" height="1024" viewBox="0 0 512 512">
<g fill="none" stroke="#C9A56A" stroke-width="8" stroke-linecap="round" stroke-linejoin="round">
<path d="M255 430 C250 340 255 250 260 90"/>
<path d="M258 180 C210 155 180 140 145 120"/>
<path d="M258 240 C305 215 340 200 380 175"/>
<path d="M258 300 C215 285 185 275 150 255"/>
<path d="M258 355 C305 340 340 325 370 305"/>
<path d="M145 120 C175 95 205 100 220 130 C195 145 165 145 145 120 Z"/>
<path d="M380 175 C350 150 320 155 300 185 C325 200 355 200 380 175 Z"/>
<path d="M150 255 C180 230 210 235 225 265 C200 280 170 280 150 255 Z"/>
<path d="M370 305 C340 280 310 285 295 315 C320 330 350 330 370 305 Z"/>
<circle cx="265" cy="75" r="10"/>
<path d="M265 45 L265 15"/>
<path d="M250 30 L280 30"/>
</g></svg>